#!OML:ASF H:\Terrain\Patient Classification 1\Takeo\Monday\TakeoMonday.ASF
:FULLY-SPECIFIED
:DEGREES
311
root 11.0957 17.757 23.736 -5.58167 0.602993 3.71002
lowerback 5.69054 -0.793729 -2.67523
upperback 3.17259 -1.18452 0.0963482
thorax 0.132387 -0.626883 1.66318
lowerneck -9.68237 1.24919 -1.4188
upperneck -0.634263 1.92505 -4.39453
head 1.47584 0.854299 -1.06185
rclavicle -1.06847e-015 4.37326e-015
rhumerus -27.4086 -1.16635 -86.0179
rradius 23.2117
rwrist -8.33673
rhand -21.4211 17.4025
rfingers 7.12502
rthumb 4.96777 -12.5193
lclavicle -1.06847e-015 4.37326e-015
lhumerus -27.8497 0.132874 89.4576
lradius 48.7345
lwrist 27.0439
lhand -22.0938 21.612
lfingers 7.12502
lthumb 4.31822 51.548
rfemur -20.6396 3.68711 16.698
rtibia 66.9542
rfoot -6.56866 -17.5516
rtoes -22.2906
lfemur -1.85051 -3.13296 -30.78
ltibia 28.178
lfoot -17.0903 7.02864
ltoes -5.21453
312
root 11.0914 17.7647 23.9127 -5.76166 0.719468 3.51803
lowerback 6.15704 -0.757019 -2.7332
upperback 2.96704 -1.15417 0.251765
thorax -0.335112 -0.60467 1.86453
lowerneck -9.63309 1.25388 -1.45189
upperneck -0.255876 1.94599 -4.23997
head 1.58793 0.861317 -1.00679
rclavicle -1.37658e-014 1.19271e-015
rhumerus -28.7815 -3.3443 -85.1193
rradius 22.5262
rwrist -6.29455
rhand -21.5397 16.735
rfingers 7.12502
rthumb 4.85326 -13.1894
lclavicle -1.37658e-014 1.19271e-015
lhumerus -28.023 -0.720748 89.6228
lradius 50.1297
lwrist 27.6491
lhand -22.442 21.0577
lfingers 7.12502
lthumb 3.98191 51.0002
rfemur -21.1123 4.43034 16.9126
rtibia 65.3066
rfoot -8.45368 -16.8628
rtoes -18.4148
lfemur -0.733968 -3.00976 -30.5941
ltibia 27.6753
lfoot -16.9942 6.97812
ltoes -6.74162
313
root 11.0832 17.7566 24.0663 -5.778 0.539303 2.52479
lowerback 6.88702 -0.69854 -2.04846
upperback 2.50039 -1.05248 0.649454
thorax -1.23202 -0.534685 1.90035
lowerneck -8.89275 1.41785 -1.41725
upperneck -0.119166 2.14334 -4.17166
head 1.50365 0.967693 -0.985377
rclavicle -2.00773e-014 1.07344e-014
rhumerus -30.5232 -4.56168 -84.3907
rradius 22.3552
rwrist -4.03721
rhand -21.3142 14.0002
rfingers 7.12502
rthumb 5.07097 -15.9192
lclavicle -2.00773e-014 1.07344e-014
lhumerus -28.5887 -1.31973 89.8056
lradius 51.4836
lwrist 27.8373
lhand -22.9127 19.8876
lfingers 7.12502
lthumb 3.52743 49.8382
rfemur -21.8492 5.41504 18.1448
rtibia 63.5606
rfoot -9.68171 -16.594
rtoes -16.1518
lfemur 0.19758 -2.86536 -29.4481
ltibia 26.7933
lfoot -16.4416 6.91201
ltoes -6.99353
314
root 11.0948 17.7357 24.216 -5.59285 1.13413 2.86305
lowerback 6.81422 -0.817649 -2.45296
upperback 2.52378 -1.23608 0.600001
thorax -1.15059 -0.628872 2.08892
lowerneck -8.75986 1.43698 -1.38727
upperneck -0.326003 2.1542 -4.19945
head 1.41419 0.978411 -0.999262
rclavicle -1.99282e-014 -7.95139e-016
rhumerus -31.2837 -5.13362 -84.0793
rradius 21.0592
rwrist -5.09044
rhand -21.8283 16.6073
rfingers 7.12502
rthumb 4.57456 -13.3233
lclavicle -1.99282e-014 -7.95139e-016
lhumerus -28.212 -2.01193 89.9957
lradius 52.5071
lwrist 27.5358
lhand -24.0355 17.5527
lfingers 7.12502
lthumb 2.44308 47.5185
rfemur -22.5699 5.16844 17.6065
rtibia 61.5929
rfoot -10.2991 -15.9519
rtoes -16.1026
lfemur 0.716325 -3.10964 -29.8987
ltibia 26.4878
lfoot -16.8884 6.45222
ltoes -3.42154
315
root 11.1338 17.7148 24.3616 -5.33806 2.65018 5.07895
lowerback 6.5708 -1.13286 -4.32349
upperback 2.78482 -1.7682 -0.107411
thorax -0.67889 -0.913128 2.43712
lowerneck -9.21272 1.35626 -1.27436
upperneck -0.549794 2.04052 -4.28431
head 1.42267 0.918983 -1.04822
rclavicle -1.18525e-014 8.74653e-015
rhumerus -31.4898 -6.87082 -83.3338
rradius 19.747
rwrist -4.26085
rhand -21.9185 17.6319
rfingers 7.12502
rthumb 4.48749 -12.3005
lclavicle -1.18525e-014 8.74653e-015
lhumerus -27.2727 -2.65635 90.0168
lradius 53.6563
lwrist 27.8217
lhand -24.288 16.8647
lfingers 7.12502
lthumb 2.19922 46.8331
rfemur -23.1029 3.58099 14.6027
rtibia 59.539
rfoot -10.8391 -14.7058
rtoes -17.1874
lfemur 1.35925 -3.93183 -32.6424
ltibia 26.2333
lfoot -17.4302 6.02387
ltoes -1.13464
316
root 11.0934 17.7272 24.5576 -5.54263 1.79947 3.93013
lowerback 6.4874 -0.767054 -3.9321
upperback 2.92143 -1.24578 0.39794
thorax -0.52771 -0.657761 2.70102
lowerneck -9.69917 1.13065 -1.64578
upperneck -0.23242 1.78949 -3.62448
head 1.59323 0.79768 -0.784706
rclavicle 1.59276e-014 -9.54166e-015
rhumerus -32.468 -8.44519 -82.4472
rradius 18.8749
rwrist -3.25008
rhand -22.0264 17.3407
rfingers 7.12502
rthumb 4.38325 -12.5939
lclavicle 1.59276e-014 -9.54166e-015
lhumerus -26.9341 -3.11653 90.0035
lradius 55.1665
lwrist 28.3502
lhand -23.2568 18.8015
lfingers 7.12502
lthumb 3.19513 48.7573
rfemur -23.253 5.52745 16.3365
rtibia 56.702
rfoot -10.9684 -15.203
rtoes -18.1289
lfemur 1.8935 -3.29879 -31.1279
ltibia 26.5398
lfoot -18.1726 6.11158
ltoes -2.20413
317
root 11.1144 17.728 24.6889 -5.03132 2.64567 4.08921
lowerback 6.67794 -0.916737 -3.98832
upperback 2.74154 -1.46018 0.339155
thorax -0.802929 -0.756076 2.69268
lowerneck -10.375 1.1376 -1.32474
upperneck 0.144069 1.79715 -3.69568
head 1.84311 0.786278 -0.860524
rclavicle 2.44257e-014 -5.56597e-015
rhumerus -33.3312 -9.89864 -81.6053
rradius 18.1307
rwrist -2.50784
rhand -22.264 17.2398
rfingers 7.12502
rthumb 4.15384 -12.6995
lclavicle 2.44257e-014 -5.56597e-015
lhumerus -26.5116 -3.60271 90.0603
lradius 56.5815
lwrist 28.1247
lhand -23.3229 19.6741
lfingers 7.12502
lthumb 3.13129 49.6309
rfemur -23.8267 5.02259 15.852
rtibia 53.7309
rfoot -10.9107 -14.6623
rtoes -19.7334
lfemur 1.83076 -3.661 -31.3873
ltibia 26.7496
lfoot -18.3208 5.97282
ltoes -4.15477
318
root 11.0718 17.7426 24.8268 -4.98463 1.97163 1.36397
lowerback 6.80421 -0.718258 -1.76801
upperback 2.89228 -1.04968 1.11798
thorax -0.778684 -0.542769 2.21973
lowerneck -10.9044 1.14259 -0.879618
upperneck 0.0776132 1.76473 -3.85619
head 1.92439 0.762508 -0.98926
rclavicle -3.77691e-015 9.54166e-015
rhumerus -33.8497 -11.7636 -80.8564
rradius 17.2114
rwrist -1.38503
rhand -22.305 17.3043
rfingers 7.12502
rthumb 4.11422 -12.6357
lclavicle -3.77691e-015 9.54166e-015
lhumerus -25.8597 -4.31941 89.9062
lradius 57.7225
lwrist 27.8179
lhand -24.2625 18.5287
lfingers 7.12502
lthumb 2.22388 48.4968
rfemur -24.1837 6.87788 19.1709
rtibia 50.2962
rfoot -9.91521 -15.7108
rtoes -20.8996
lfemur 1.82182 -3.49798 -28.156
ltibia 27.1673
lfoot -18.6206 6.0359
ltoes -5.13222
319
root 11.0708 17.7377 24.9725 -4.82166 2.3847 0.883343
lowerback 6.64703 -0.849986 -1.19522
upperback 3.06784 -1.18795 1.13556
thorax -0.515876 -0.611529 1.92056
lowerneck -11.1177 1.20928 -0.605546
upperneck -0.141762 1.81886 -3.97702
head 1.89664 0.788159 -1.07212
rclavicle -7.03201e-015 -1.55052e-014
rhumerus -34.4666 -13.9852 -79.8957
rradius 16.2346
rwrist 0.565758
rhand -22.108 17.2023
rfingers 7.12502
rthumb 4.30451 -12.734
lclavicle -7.03201e-015 -1.55052e-014
lhumerus -25.277 -4.87837 89.6409
lradius 58.8114
lwrist 27.9204
lhand -24.5903 17.2912
lfingers 7.12502
lthumb 1.90727 47.2625
rfemur -24.3894 7.02308 19.5586
rtibia 47.0585
rfoot -9.40944 -15.784
rtoes -20.383
lfemur 2.13876 -3.67908 -27.5971
ltibia 27.2588
lfoot -18.9577 5.65458
ltoes -4.79999
320
root 11.1032 17.7337 25.1261 -4.28852 3.7329 2.00567
lowerback 5.53602 -1.271 -1.9862
upperback 3.55677 -1.77672 0.757701
thorax 0.642171 -0.928918 1.97684
lowerneck -11.3409 1.2131 -1.05892
upperneck -0.751709 1.84872 -3.46919
head 1.72067 0.824933 -0.827946
rclavicle 1.20265e-014 -8.34896e-015
rhumerus -34.546 -16.2428 -78.848
rradius 15.3313
rwrist 2.87915
rhand -21.9029 17.1569
rfingers 7.12502
rthumb 4.50253 -12.7752
lclavicle 1.20265e-014 -8.34896e-015
lhumerus -24.0853 -4.98397 89.4738
lradius 59.8715
lwrist 27.9694
lhand -24.4643 16.3968
lfingers 7.12502
lthumb 2.02897 46.3669
rfemur -24.623 5.70829 17.9031
rtibia 43.8234
rfoot -9.37782 -15.1634
rtoes -19.0674
lfemur 2.39968 -4.01771 -28.9018
ltibia 27.1457
lfoot -19.1037 5.05843
ltoes -5.17129
321
root 11.0805 17.7388 25.3052 -4.26439 3.66506 1.21597
lowerback 6.32507 -1.24744 -1.59306
upperback 2.76794 -1.73658 1.1173
thorax -0.610994 -0.885461 2.15821
lowerneck -10.3905 1.17443 -1.48577
upperneck -0.436658 1.82519 -3.03759
head 1.64316 0.828329 -0.622143
rclavicle -1.5704e-014 1.82882e-014
rhumerus -37.059 -16.6142 -77.6566
rradius 14.9616
rwrist 3.50582
rhand -21.7637 17.1721
rfingers 7.12502
rthumb 4.63694 -12.7572
lclavicle -1.5704e-014 1.82882e-014
lhumerus -25.3759 -5.11102 89.647
lradius 61.1527
lwrist 28.0685
lhand -24.4334 15.8221
lfingers 7.12502
lthumb 2.0588 45.7919
rfemur -24.5664 6.50117 18.8425
rtibia 40.5981
rfoot -9.30474 -15.6047
rtoes -19.7877
lfemur 3.19295 -3.68352 -27.849
ltibia 26.4955
lfoot -18.9998 4.68091
ltoes -4.87458
322
root 11.0725 17.7431 25.4833 -4.22567 3.74367 0.789636
lowerback 6.3606 -1.108 -1.27128
upperback 2.83276 -1.53152 1.21329
thorax -0.580221 -0.781794 2.06294
lowerneck -11.1355 1.01302 -1.20219
upperneck -0.127059 1.6072 -3.13673
head 1.88155 0.7058 -0.710245
rclavicle 1.54058e-014 -1.51076e-014
rhumerus -38.1152 -18.1447 -76.6005
rradius 14.3693
rwrist 4.49306
rhand -21.6564 16.8884
rfingers 7.12502
rthumb 4.74059 -13.0386
lclavicle 1.54058e-014 -1.51076e-014
lhumerus -25.0436 -5.85691 89.7012
lradius 62.1953
lwrist 28.2754
lhand -24.4268 15.6174
lfingers 7.12502
lthumb 2.06512 45.5872
rfemur -24.4884 6.96859 19.3078
rtibia 37.4268
rfoot -9.75748 -15.8969
rtoes -21.6561
lfemur 4.12237 -3.55629 -27.2716
ltibia 25.632
lfoot -18.9684 4.30915
ltoes -3.81197
323
root 11.0671 17.7537 25.6628 -4.27282 3.82241 0.554414
lowerback 5.61282 -1.17193 -1.34901
upperback 3.31168 -1.61572 1.51849
thorax 0.343332 -0.840673 2.40011
lowerneck -11.1981 1.14346 -0.964692
upperneck -0.566147 1.76146 -3.91289
head 1.76345 0.767516 -0.990918
rclavicle 4.96962e-016 1.19271e-014
rhumerus -38.7903 -20.5079 -74.5872
rradius 13.637
rwrist 7.50299
rhand -21.0612 16.1601
rfingers 7.12502
rthumb 5.31521 -13.7533
lclavicle 4.96962e-016 1.19271e-014
lhumerus -24.3558 -5.57897 89.8701
lradius 63.2016
lwrist 28.1656
lhand -23.9844 15.8732
lfingers 7.12502
lthumb 2.49243 45.8384
rfemur -24.2638 7.48936 19.5562
rtibia 34.1422
rfoot -10.0302 -16.4635
rtoes -21.8981
lfemur 5.15581 -3.26445 -26.9139
ltibia 24.9232
lfoot -19.1732 4.14946
ltoes -3.32813
324
root 11.0836 17.7707 25.8325 -4.2314 4.33729 0.575306
lowerback 6.48529 -1.35163 -1.18765
upperback 2.60434 -1.84693 1.4886
thorax -0.863532 -0.935687 2.32766
lowerneck -10.3274 1.07084 -1.53575
upperneck -0.551112 1.69034 -3.10831
head 1.59365 0.761826 -0.642347
rclavicle 2.41026e-015 -3.18055e-015
rhumerus -41.3849 -21.6147 -72.7148
rradius 13.4317
rwrist 9.16184
rhand -20.297 15.4035
rfingers 7.12502
rthumb 6.05306 -14.49
lclavicle 2.41026e-015 -3.18055e-015
lhumerus -25.4757 -5.81788 89.933
lradius 64.1687
lwrist 28.4883
lhand -24.2208 15.8572
lfingers 7.12502
lthumb 2.26414 45.825
rfemur -24.234 7.31307 19.416
rtibia 31.3009
rfoot -10.4759 -16.7583
rtoes -19.9702
lfemur 6.34469 -3.14379 -26.9044
ltibia 23.801
lfoot -19.0599 3.95052
ltoes -3.84527
